<svg xmlns="http://www.w3.org/2000/svg" width="36" height="36" viewBox="0 0 24 24" fill="#1bbc14"><path d="M20 0a4 4 0 0 1 4 4v16a4 4 0 0 1-4 4H4a4 4 0 0 1-4-4V4a4 4 0 0 1 4-4h16zm-8 4a8 8 0 1 0 0 16 8 8 0 0 0 0-16zm-1.23 9.54c1.75 0 3.31.4 4.66 1.2.2.12.31.24.31.53a.5.5 0 0 1-.75.44l-.08-.05a8.02 8.02 0 0 0-4.14-1.07c-.86 0-1.72.1-2.53.27l-.2.05a.9.9 0 0 1-.19.03.5.5 0 0 1-.5-.5c0-.34.19-.5.43-.55.99-.22 1.97-.35 3-.35zm-.1-2.62c2.09 0 4.11.53 5.7 1.48.27.15.37.35.37.63a.62.62 0 0 1-.95.53l-.07-.04c-1.3-.77-3.1-1.29-5.08-1.29-1.02 0-1.9.15-2.61.34l-.2.06a.63.63 0 0 1-.82-.6c0-.34.17-.57.5-.67.9-.25 1.82-.44 3.15-.44zm.16-2.74c2.35 0 4.82.48 6.62 1.54.25.14.41.34.41.73 0 .43-.35.74-.75.74a.76.76 0 0 1-.41-.12c-1.45-.87-3.7-1.34-5.87-1.34-1.09 0-2.19.1-3.2.38l-.19.05a.75.75 0 0 1-.97-.73c0-.43.27-.68.56-.76 1.14-.34 2.41-.5 3.8-.5z"/></svg>